ply
format ascii 1.0
element vertex 36
property double x
property double y
property double z
end_header
1.175522885009118 -0.241079364632784 0.325374497096220
1.181222135319351 -0.355455290174071 0.327678194879188
1.167413172498927 -0.126438321060183 0.322764302491010
1.130642938276160 0.216376694754114 0.314919916642800
1.148415766423792 0.102710702039720 0.318484758979564
1.159394790104066 -0.011936680751439 0.320792377538893
1.117811564119965 -0.361151157138586 0.229209384463452
1.101155074517238 -0.019027029170665 0.223256490976719
1.109973810924976 -0.133561351149947 0.225395466976368
1.114892390770721 -0.247600219486561 0.227270219358785
1.089335197130675 0.095402313753406 0.220664962799764
1.069041622685404 0.208374818434404 0.217058246240890
1.052472843659035 -0.366417632499882 0.131378607962407
1.049534278903936 -0.140580346205735 0.127913872248725
1.052272988089769 -0.254021878255764 0.129605861323048
1.030656151541801 0.088423536620931 0.123377504108964
1.041015375655724 -0.026116135116480 0.125729945836970
1.008192810016540 0.200789739229127 0.120121446380160
0.987926316767271 -0.372180244077472 0.034707555033536
0.990074870253120 -0.260739513999369 0.032623027073091
0.987487958577927 -0.147543209893967 0.030504258300402
0.979675878650412 -0.033190315759048 0.028287246546031
0.969694682480616 0.081346433363273 0.025947711040563
0.945647782970487 0.193232981072945 0.023519088616651
0.925575946038015 -0.379046861858490 -0.061450388060437
0.920325955887444 -0.266042245121944 -0.063522204233569
0.923771377993038 -0.154375843430662 -0.066632347305119
0.917834407174306 -0.040229585341155 -0.069157774772565
0.905824412894527 0.074098443135985 -0.071321648666174
0.879945073572358 0.185355484237599 -0.072372590059310
0.873170956573107 -0.389720991721425 -0.159410273521079
0.852740509932168 -0.272050510676865 -0.158741837440635
0.852704048260471 -0.160494575112371 -0.162189155075680
0.852690653984337 -0.047283468474831 -0.166278260975430
0.837833913195786 0.066681094576940 -0.167742607458747
0.816733188661259 0.178488863549985 -0.168316864708079
